<?xml version="1.0" encoding="UTF-8"?>
<svg id="Capa_2" data-name="Capa 2" xmlns="http://www.w3.org/2000/svg" viewBox="0 0 18.96 15.74">
  <defs>
    <style>
      .cls-1 {
        fill: #2d2d2d;
      }
    </style>
  </defs>
  <g id="Layer_1" data-name="Layer 1">
    <g>
      <polygon class="cls-1" points="18.96 12.29 16.36 12.29 16.36 9.73 15.36 9.73 15.36 12.29 12.83 12.29 12.83 13.29 15.36 13.29 15.36 15.74 16.36 15.74 16.36 13.29 18.96 13.29 18.96 12.29"/>
      <path class="cls-1" d="M1,12.5v-4.33h16.97v-.02h.02s-.02-2.1-.02-2.1c0-1.74-1.42-3.16-3.15-3.16l-5.78-.03-.26-.73C8.34.87,7.15.02,5.82.01h-2.67c-1.74-.01-3.16,1.4-3.16,3.14v9.34c0,1.74,1.42,3.16,3.15,3.16l8.71.06v-1s-8.71-.06-8.71-.06c-1.19,0-2.16-.97-2.16-2.16ZM3.15,1h2.66c.91.02,1.72.6,2.02,1.46l.49,1.4,6.48.03c1.19,0,2.16.97,2.16,2.16v1.11s-15.97,0-15.97,0V3.16c0-1.19.97-2.16,2.15-2.16Z"/>
    </g>
  </g>
</svg>