<?xml version="1.0" encoding="UTF-8"?>
<svg id="Capa_2" data-name="Capa 2" xmlns="http://www.w3.org/2000/svg" viewBox="0 0 17.69 16.34">
  <defs>
    <style>
      .cls-1 {
        fill: #0a2ff1;
      }
    </style>
  </defs>
  <g id="Layer_1" data-name="Layer 1">
    <path class="cls-1" d="M17.69,7.86L10.36.58c-.39-.38-.87-.58-1.46-.58-.55,0-1.06.23-1.43.61L0,7.89l.7.72,1.56-1.52v6.1c0,1.74,1.42,3.16,3.16,3.16h6.86c1.74,0,3.16-1.42,3.16-3.16v-6.16l1.56,1.55.71-.71ZM10.63,15.34h-3.47v-4.78c0-.96.78-1.73,1.73-1.73s1.73.78,1.73,1.73v4.78ZM14.43,13.19c0,1.19-.97,2.16-2.16,2.16h-.65v-4.78c0-1.51-1.23-2.73-2.73-2.73s-2.73,1.23-2.73,2.73v4.78h-.74c-1.19,0-2.16-.97-2.16-2.16v-7.08L8.18,1.32c.2-.2.46-.31.74-.32.32.02.55.1.74.29l4.77,4.74v7.16Z"/>
  </g>
</svg>