<?xml version="1.0" encoding="UTF-8"?>
<svg id="Capa_2" data-name="Capa 2" xmlns="http://www.w3.org/2000/svg" viewBox="0 0 16.41 15.76">
  <defs>
    <style>
      .cls-1 {
        fill: #787878;
      }
    </style>
  </defs>
  <g id="Layer_1" data-name="Layer 1">
    <path class="cls-1" d="M13.25,0h-6.78c-1.69,0-3.07,1.34-3.14,3.02h-.17c-1.74,0-3.16,1.42-3.16,3.16v6.43c0,1.74,1.42,3.16,3.16,3.16h6.78c1.69,0,3.07-1.34,3.14-3.02h.17c1.74,0,3.16-1.42,3.16-3.16V3.16c0-1.74-1.42-3.16-3.16-3.16ZM12.1,12.61c0,1.19-.97,2.16-2.16,2.16H3.16c-1.19,0-2.16-.97-2.16-2.16v-6.43c0-1.19.97-2.16,2.16-2.16h6.78c1.19,0,2.16.97,2.16,2.16v6.43ZM15.41,9.59c0,1.19-.97,2.16-2.16,2.16h-.16v-5.57c0-1.74-1.42-3.16-3.16-3.16h-5.61c.07-1.12,1-2.02,2.14-2.02h6.78c1.19,0,2.16.97,2.16,2.16v6.43Z"/>
  </g>
</svg>