<?xml version="1.0" encoding="UTF-8"?>
<svg id="Capa_2" data-name="Capa 2" xmlns="http://www.w3.org/2000/svg" viewBox="0 0 15.7 15.75">
  <defs>
    <style>
      .cls-1 {
        fill: #787878;
      }
    </style>
  </defs>
  <g id="Layer_1" data-name="Layer 1">
    <g>
      <path class="cls-1" d="M12.11,12.59c0,1.19-.97,2.16-2.16,2.16H3.16c-1.19,0-2.16-.97-2.16-2.16v-6.4c0-1.19.97-2.16,2.16-2.16h2.04v-1h-2.04c-1.74,0-3.16,1.42-3.16,3.16v6.4c0,1.74,1.42,3.16,3.16,3.16h6.79c1.74,0,3.16-1.42,3.16-3.16v-2.09h-1v2.09Z"/>
      <path class="cls-1" d="M15.69,2.02c0-.54-.22-1.05-.6-1.44S14.15-.02,13.64,0h-4.24s0,1.01,0,1.01h4.24s0-.01,0-.01c.11,0,.22.03.33.06L5.37,9.6l.7.71L14.64,1.82c.02.07.04.14.04.21l.02,4.38h1s-.02-4.39-.02-4.39Z"/>
    </g>
  </g>
</svg>