<?xml version="1.0" encoding="UTF-8"?>
<svg id="Capa_2" data-name="Capa 2" xmlns="http://www.w3.org/2000/svg" viewBox="0 0 13.05 12.44">
  <defs>
    <style>
      .cls-1 {
        fill: #0a2ff1;
      }
    </style>
  </defs>
  <g id="Layer_1" data-name="Layer 1">
    <g>
      <path class="cls-1" d="M11.01,12.44H2.03c-1.12,0-2.03-.91-2.03-2.03v-2.63h1v2.63c0,.57.46,1.03,1.03,1.03h8.98c.57,0,1.03-.46,1.03-1.03v-2.63h1v2.63c0,1.12-.91,2.03-2.03,2.03Z"/>
      <path class="cls-1" d="M4.59.81l-2.19,2.25.83.81,2.19-2.25c.16-.16.34-.28.53-.35v7.57h1.15V1.27c.18.07.34.18.49.32l2.25,2.19.81-.83-2.25-2.19c-1.06-1.04-2.77-1.02-3.81.05Z"/>
    </g>
  </g>
</svg>