<?xml version="1.0" encoding="UTF-8"?>
<svg id="Capa_2" data-name="Capa 2" xmlns="http://www.w3.org/2000/svg" viewBox="0 0 13 15.62">
  <defs>
    <style>
      .cls-1 {
        fill: #0a2ff1;
      }
    </style>
  </defs>
  <g id="Layer_1" data-name="Layer 1">
    <g>
      <path class="cls-1" d="M12.72,4.09L8.97.29c-.18-.19-.44-.29-.7-.29H2.02C.91,0,0,.91,0,2.02v11.58c0,1.11.91,2.02,2.02,2.02h8.96c1.11,0,2.02-.91,2.02-2.02V4.77c0-.26-.1-.5-.28-.69ZM8.77,1.51l2.72,2.76h-1.7c-.56,0-1.02-.46-1.02-1.02v-1.74ZM12,13.6c0,.56-.46,1.02-1.02,1.02H2.02c-.56,0-1.02-.46-1.02-1.02V2.02c0-.56.46-1.02,1.02-1.02h5.75s0,2.25,0,2.25c0,1.11.91,2.02,2.02,2.02h2.21v8.33Z"/>
      <rect class="cls-1" x="2.18" y="7.33" width="8.55" height=".75"/>
      <rect class="cls-1" x="2.18" y="9.48" width="8.55" height=".75"/>
      <rect class="cls-1" x="2.18" y="11.63" width="4.29" height=".75"/>
    </g>
  </g>
</svg>