<?xml version="1.0" encoding="UTF-8"?>
<svg id="Capa_2" data-name="Capa 2" xmlns="http://www.w3.org/2000/svg" viewBox="0 0 16.12 16.39">
  <defs>
    <style>
      .cls-1 {
        fill: #2d2d2d;
      }
    </style>
  </defs>
  <g id="Layer_1" data-name="Layer 1">
    <g>
      <path class="cls-1" d="M14.51,13.24c0,1.19-.97,2.16-2.16,2.16H3.16c-1.19,0-2.16-.97-2.16-2.16V3.8c0-1.19.97-2.16,2.16-2.16h3.98V.64h-3.98C1.42.64,0,2.06,0,3.8v9.44c0,1.74,1.42,3.16,3.16,3.16h9.2c1.74,0,3.16-1.42,3.16-3.16v-4.5h-1v4.5Z"/>
      <path class="cls-1" d="M3.74,11.71l3.96-.05,7.64-7.33c.49-.46.76-1.09.77-1.76s-.23-1.31-.7-1.79C14.95.29,14.33.01,13.65,0c-.69-.02-1.31.23-1.79.7l-7.63,7.31-.49,3.7ZM5.18,8.49L12.55,1.42c.6-.58,1.56-.56,2.14.05.28.29.43.68.42,1.08,0,.4-.17.78-.47,1.06l-7.36,7.05-2.41.03.29-2.21Z"/>
    </g>
  </g>
</svg>