<?xml version="1.0" encoding="UTF-8"?>
<svg id="Capa_2" data-name="Capa 2" xmlns="http://www.w3.org/2000/svg" viewBox="0 0 55.77 55.77">
  <defs>
    <style>
      .cls-1 {
        fill: #0a2ff1;
      }
    </style>
  </defs>
  <g id="Layer_1" data-name="Layer 1">
    <path class="cls-1" d="M27.89,0C12.49,0,0,12.48,0,27.89s12.49,27.89,27.89,27.89,27.89-12.48,27.89-27.89S43.29,0,27.89,0ZM18.08,27.68v-2.58c0-1.96,1.59-3.55,3.55-3.55h2.58c1.96,0,3.55,1.59,3.55,3.55v2.58c0,1.96-1.59,3.55-3.55,3.55h-2.58c-1.96,0-3.55-1.59-3.55-3.55ZM27.81,46.77c0,1.31-1.07,2.38-2.38,2.38h-1.73c-1.31,0-2.38-1.07-2.38-2.38v-1.73c0-1.31,1.07-2.38,2.38-2.38h1.73c1.31,0,2.38,1.07,2.38,2.38v1.73ZM35.92,37.2c0,1.63-1.33,2.96-2.96,2.96h-2.15c-1.63,0-2.96-1.33-2.96-2.96v-2.15c0-1.63,1.33-2.96,2.96-2.96h2.15c1.63,0,2.96,1.33,2.96,2.96v2.15ZM40.78,16.21c0,2.61-2.12,4.73-4.73,4.73h-3.45c-2.61,0-4.73-2.12-4.73-4.73v-3.45c0-2.61,2.12-4.73,4.73-4.73h3.45c2.61,0,4.73,2.12,4.73,4.73v3.45Z"/>
  </g>
</svg>