<?xml version="1.0" encoding="UTF-8"?>
<svg id="Capa_2" data-name="Capa 2" xmlns="http://www.w3.org/2000/svg" viewBox="0 0 21.75 22.07">
  <defs>
    <style>
      .cls-1 {
        fill: #0a2ff1;
      }
    </style>
  </defs>
  <g id="Layer_1" data-name="Layer 1">
    <g>
      <path class="cls-1" d="M14.48,18.92c0,1.19-.97,2.16-2.16,2.16H3.16c-1.19,0-2.16-.97-2.16-2.16V3.16c0-1.19.97-2.16,2.16-2.16h9.17c1.19,0,2.16.97,2.16,2.16v3.34h1v-3.34c0-1.74-1.42-3.16-3.16-3.16H3.16C1.42,0,0,1.42,0,3.16v15.76c0,1.74,1.42,3.16,3.16,3.16h9.17c1.74,0,3.16-1.42,3.16-3.16v-2.74h-1v2.74Z"/>
      <path class="cls-1" d="M20.92,9.02l-2.44-2.38-.7.72,2.44,2.38c.23.22.38.49.46.79h-12.52v1h12.49c-.08.24-.21.46-.39.65l-2.47,2.53.72.7,2.47-2.53c.51-.52.78-1.21.77-1.94,0-.73-.3-1.41-.82-1.92Z"/>
    </g>
  </g>
</svg>