<?xml version="1.0" encoding="UTF-8"?>
<svg id="Capa_2" data-name="Capa 2" xmlns="http://www.w3.org/2000/svg" viewBox="0 0 13 15.8">
  <defs>
    <style>
      .cls-1 {
        fill: #2d2d2d;
      }
    </style>
  </defs>
  <g id="Layer_1" data-name="Layer 1">
    <g>
      <path class="cls-1" d="M6.46,10.6h.07c1.95,0,3.54-1.59,3.54-3.54v-3.52c0-1.95-1.59-3.54-3.62-3.54s-3.54,1.59-3.54,3.54v3.52c0,1.95,1.59,3.54,3.54,3.54ZM3.92,3.54c0-1.4,1.14-2.54,2.62-2.54s2.54,1.14,2.54,2.54v3.52c0,1.4-1.14,2.54-2.54,2.54h-.07c-1.4,0-2.54-1.14-2.54-2.54v-3.52Z"/>
      <path class="cls-1" d="M13,7.89h-1c0,2.58-2.47,4.67-5.5,4.67S1,10.46,1,7.89H0c0,2.98,2.65,5.42,6,5.65v1.27h-2.09v1h5.17v-1h-2.09v-1.27c3.35-.22,6-2.67,6-5.65Z"/>
    </g>
  </g>
</svg>