<?xml version="1.0" encoding="UTF-8"?>
<svg id="Capa_2" data-name="Capa 2" xmlns="http://www.w3.org/2000/svg" viewBox="0 0 23.52 16.48">
  <defs>
    <style>
      .cls-1 {
        fill: #0a2ff1;
      }
    </style>
  </defs>
  <g id="Layer_1" data-name="Layer 1">
    <g>
      <path class="cls-1" d="M11.76,16.48C4.51,16.48.24,8.81.06,8.48c-.08-.15-.08-.33,0-.48C.24,7.67,4.51,0,11.76,0s11.52,7.67,11.7,8c.08.15.08.33,0,.48-.18.33-4.45,8-11.7,8ZM1.08,8.24c.78,1.28,4.71,7.24,10.68,7.24s9.9-5.96,10.68-7.24c-.78-1.28-4.71-7.24-10.68-7.24S1.86,6.96,1.08,8.24Z"/>
      <path class="cls-1" d="M11.77,13.31c-2.79,0-5.07-2.27-5.07-5.07s2.27-5.07,5.07-5.07,5.07,2.27,5.07,5.07-2.27,5.07-5.07,5.07ZM11.77,4.17c-2.24,0-4.07,1.82-4.07,4.07s1.82,4.07,4.07,4.07,4.07-1.82,4.07-4.07-1.82-4.07-4.07-4.07Z"/>
    </g>
  </g>
</svg>