<?xml version="1.0" encoding="UTF-8"?>
<svg id="Capa_2" data-name="Capa 2" xmlns="http://www.w3.org/2000/svg" viewBox="0 0 18.05 16.23">
  <defs>
    <style>
      .cls-1 {
        fill: #0a2ff1;
      }
    </style>
  </defs>
  <g id="Layer_1" data-name="Layer 1">
    <g>
      <path class="cls-1" d="M10.67,7.68h-3.33c-1.53,0-2.78,1.25-2.78,2.78s1.25,2.78,2.78,2.78h3.33c1.53,0,2.78-1.25,2.78-2.78s-1.25-2.78-2.78-2.78ZM10.67,12.24h-3.33c-.98,0-1.78-.8-1.78-1.78s.8-1.78,1.78-1.78h3.33c.98,0,1.78.8,1.78,1.78s-.8,1.78-1.78,1.78Z"/>
      <path class="cls-1" d="M16.02,7.68h-.46v-1.15h0V0h-1v4.23c-.57-.53-1.32-.86-2.16-.86h-6.78c-.84,0-1.59.33-2.16.86V0h-1v6.45h0s0,.05,0,.08v1.16h-.42c-1.12,0-2.03.91-2.03,2.03v1.48c0,1.12.91,2.03,2.03,2.03h.44c.08,1.67,1.45,3,3.14,3h6.78c1.69,0,3.05-1.33,3.14-3h.48c1.12,0,2.03-.91,2.03-2.03v-1.48c0-1.12-.91-2.03-2.03-2.03ZM1,11.2v-1.48c0-.57.46-1.03,1.03-1.03h.42v3.55h-.42c-.57,0-1.03-.46-1.03-1.03ZM14.55,13.08c0,1.19-.97,2.16-2.16,2.16h-6.78c-1.19,0-2.16-.97-2.16-2.16v-6.55c0-1.19.97-2.16,2.16-2.16h6.78c1.19,0,2.16.97,2.16,2.16h0v6.55ZM17.05,11.2c0,.57-.46,1.03-1.03,1.03h-.46v-3.55h.46c.57,0,1.03.46,1.03,1.03v1.48Z"/>
      <circle class="cls-1" cx="7.81" cy="10.46" r=".61"/>
      <circle class="cls-1" cx="10.18" cy="10.46" r=".61"/>
    </g>
  </g>
</svg>