<?xml version="1.0" encoding="UTF-8"?>
<svg id="Capa_2" data-name="Capa 2" xmlns="http://www.w3.org/2000/svg" viewBox="0 0 22.42 22.42">
  <defs>
    <style>
      .cls-1 {
        fill: #0a2ff1;
      }

      .cls-2 {
        fill: #f8f9fa;
      }
    </style>
  </defs>
  <g id="Layer_1" data-name="Layer 1">
    <g>
      <path class="cls-1" d="M8.22,0h5.98C18.74,0,22.42,3.68,22.42,8.22v5.98c0,4.54-3.68,8.22-8.22,8.22h-5.98C3.68,22.42,0,18.74,0,14.2v-5.98C0,3.68,3.68,0,8.22,0Z"/>
      <path class="cls-2" d="M11.51,5.18c-2.66,0-4.81,2.15-4.81,4.81s2.15,4.81,4.81,4.81,4.81-2.15,4.81-4.81-2.15-4.81-4.81-4.81ZM11.51,13.2c-1.77,0-3.21-1.44-3.21-3.21s1.44-3.21,3.21-3.21,3.21,1.44,3.21,3.21-1.44,3.21-3.21,3.21Z"/>
      <path class="cls-2" d="M11.51,16.41c-5.19,0-7.68,2.01-8.8,3.87.4.36.83.68,1.29.96.2-.35.46-.73.82-1.09,1.05-1.05,3.01-2.14,6.69-2.14s5.64,1.09,6.69,2.14c.27.27.49.55.66.82.44-.31.85-.65,1.23-1.04-1.22-1.75-3.71-3.52-8.58-3.52Z"/>
    </g>
  </g>
</svg>