<?xml version="1.0" encoding="UTF-8"?>
<svg id="Capa_2" data-name="Capa 2" xmlns="http://www.w3.org/2000/svg" viewBox="0 0 12.93 15.8">
  <defs>
    <style>
      .cls-1 {
        fill: #0a2ff1;
      }
    </style>
  </defs>
  <g id="Layer_1" data-name="Layer 1">
    <g>
      <path class="cls-1" d="M6.41,8.13c-2.18,0-3.96-1.82-3.96-4.06S4.23,0,6.41,0s3.96,1.82,3.96,4.06-1.77,4.06-3.96,4.06ZM6.41,1c-1.63,0-2.96,1.37-2.96,3.06s1.33,3.06,2.96,3.06,2.96-1.37,2.96-3.06-1.33-3.06-2.96-3.06Z"/>
      <path class="cls-1" d="M12.43,15.8H.5c-.14,0-.27-.06-.37-.16-.09-.1-.14-.24-.13-.38.24-3.27,3.08-5.83,6.46-5.83s6.22,2.56,6.46,5.83c.01.14-.04.28-.13.38-.09.1-.23.16-.37.16ZM1.07,14.8h10.8c-.46-2.49-2.73-4.37-5.4-4.37s-4.94,1.88-5.4,4.37Z"/>
    </g>
  </g>
</svg>